# xmcd
#
# Track frame offsets: 
#        150
#        26328
#        49329
#        76879
#        99065
#        121579
#        135037
#        145604
#        170695
#        204271
#        227627
#        250141
#        281501
#        299431
#
# Disc length: 4357 seconds
#
# Revision: 0
# Processed by: cddbd v1.5.2PL0 Copyright (c) Steve Scherf et al.
# Submitted via: ExactAudioCopyFreeDBPlugin 1.0
#
DISCID=ad11030e
DTITLE=Magic Slim and The Teardrops - Zoo Bar Collection Vol 4 - Spider 
DTITLE=In My Stew
DYEAR=1998
DGENRE=Blues
TTITLE0=Changed
TTITLE1=Spider In My Stew
TTITLE2=Your Day Will Come
TTITLE3=The Moon Is Full
TTITLE4=Standin' On The Highway
TTITLE5=Stormy Monday-Kansas City-C.C. Rider
TTITLE6=Fanny's Blues
TTITLE7=Drink Muddy Water
TTITLE8=Walkin' Cane
TTITLE9=4-59 In The Morning
TTITLE10=Kansas City
TTITLE11=Since I Met You Baby
TTITLE12=Mojo Boogie
TTITLE13=The Blues Are All Right
EXTD=
EXTT0=
EXTT1=
EXTT2=
EXTT3=
EXTT4=
EXTT5=
EXTT6=
EXTT7=
EXTT8=
EXTT9=
EXTT10=
EXTT11=
EXTT12=
EXTT13=
PLAYORDER=
